<?xml version="1.0" encoding="utf-8"?>
<!-- Generator: Adobe Illustrator 25.3.1, SVG Export Plug-In . SVG Version: 6.00 Build 0)  -->
<svg version="1.1" id="Layer_1" xmlns="http://www.w3.org/2000/svg" xmlns:xlink="http://www.w3.org/1999/xlink" x="0px" y="0px"
	 viewBox="0 0 64.1 105" style="enable-background:new 0 0 64.1 105;" xml:space="preserve">
<style type="text/css">
	.st0{fill:url(#SVGID_1_);}
	.st1{fill:url(#SVGID_2_);}
	.st2{fill:url(#SVGID_3_);}
	.st3{fill:url(#SVGID_4_);}
	.st4{fill:url(#SVGID_5_);}
</style>
<g>
	<g id="Layer_2_1_">
		<g id="Layer_1-2">
			
				<linearGradient id="SVGID_1_" gradientUnits="userSpaceOnUse" x1="193.6619" y1="12.7017" x2="153.0919" y2="104.8617" gradientTransform="matrix(1 0 0 -1 -138.92 106)">
				<stop  offset="4.000000e-02" style="stop-color:#B10867"/>
				<stop  offset="0.16" style="stop-color:#BA257E"/>
				<stop  offset="0.41" style="stop-color:#D8369A"/>
				<stop  offset="0.63" style="stop-color:#DD43A2"/>
				<stop  offset="0.87" style="stop-color:#D63499"/>
			</linearGradient>
			<path class="st0" d="M36,3.8c-8.4-4.8-15.8-4.9-21-1.3L9,5.3l0.8,3.8c-1.4,3.4-2.1,7.1-2,10.8c0,12.2,6.5,31.5,13.3,48.2l7,36.9
				l7.8-3.9c0,0,28.2-23.3,28.2-48.7C64.1,34.6,51.5,12.8,36,3.8z"/>
			
				<linearGradient id="SVGID_2_" gradientUnits="userSpaceOnUse" x1="122.3174" y1="22.3909" x2="201.1774" y2="86.6509" gradientTransform="matrix(1 0 0 -1 -138.92 106)">
				<stop  offset="7.012637e-02" style="stop-color:#990263"/>
				<stop  offset="0.2873" style="stop-color:#D12788"/>
				<stop  offset="0.65" style="stop-color:#D13FA1"/>
				<stop  offset="1" style="stop-color:#EA5EBB"/>
			</linearGradient>
			<path class="st1" d="M56.3,56.3c0,25.4-28.2,48.7-28.2,48.7S0,49.2,0,23.8C0,6,12.6-1.2,28.2,7.7S56.3,38.5,56.3,56.3z"/>
			
				<radialGradient id="SVGID_3_" cx="181.1" cy="67.46" r="39.68" gradientTransform="matrix(1 0 0 -1 -138.92 106)" gradientUnits="userSpaceOnUse">
				<stop  offset="0" style="stop-color:#FFFFFF"/>
				<stop  offset="1" style="stop-color:#000000"/>
			</radialGradient>
			<path class="st2" d="M29.9,6.8C21.8,2.1,14.5,1.8,9.4,5.2c5-2.2,11.6-1.6,18.8,2.6c15.5,9,28.2,30.7,28.2,48.6
				c0,21.7-20.7,42-26.6,47.3l0.2,0.4c0,0,28.2-23.3,28.2-48.7C58.1,37.5,45.5,15.7,29.9,6.8z"/>
			
				<linearGradient id="SVGID_4_" gradientUnits="userSpaceOnUse" x1="-200.8295" y1="-1479.6196" x2="-236.2795" y2="-1452.8196" gradientTransform="matrix(0.865 0.4982 -1.200006e-03 -1.15 218.919 -1531.299)">
				<stop  offset="0" style="stop-color:#D4D1D8"/>
				<stop  offset="1" style="stop-color:#FFFFFF"/>
			</linearGradient>
			<path class="st3" d="M13.8,15.8c7.7-4.5,20.3,2.7,28.1,16.1s7.8,27.9,0.1,32.4s-20.3-2.7-28.1-16.1S6.1,20.3,13.8,15.8z"/>
			
				<linearGradient id="SVGID_5_" gradientUnits="userSpaceOnUse" x1="34.8263" y1="50.5051" x2="19.9563" y2="86.3651" gradientTransform="matrix(1 0 0 -1 0 106)">
				<stop  offset="0" style="stop-color:#4916A1"/>
				<stop  offset="0.45" style="stop-color:#4A50C0"/>
				<stop  offset="1" style="stop-color:#4C9DE9"/>
			</linearGradient>
			<path class="st4" d="M21,20.5l9.4,5.4c2.8,1.5,5.3,3.6,7.2,6.2c1.6,2.1,2.4,4.7,2.4,7.3v3.2c0,2.7-0.8,4.3-2.5,4.7
				s-4.1-0.3-7.4-2.2L27,43.4v13.2l-6-3.5V20.5z M30,40.4c0.6,0.5,1.4,0.7,2.2,0.6c0.5-0.2,0.8-0.8,0.8-1.8v-3.7
				c0-1-0.2-1.9-0.8-2.7c-0.6-0.8-1.4-1.5-2.3-2L27,29v9.7L30,40.4z"/>
		</g>
	</g>
</g>
</svg>
